<svg xmlns="http://www.w3.org/2000/svg" viewBox="0 0 1534.84 628.47" fill="white">
  <style>.cls-2{fill:#ffffff}</style>
  <g>
    <g id="WHITE">
      <g>
        <path class="cls-2" d="M84.51,443.31c6.73-.66,12.32-2,16.93-4.04,6.93-3.08,12.36-7.71,16.12-13.79,3.73-6.01,5.61-13.01,5.61-20.81,0-9.43-2.76-17.54-8.22-24.09-5.4-6.49-12.48-10.78-21.06-12.75-5.4-1.24-15.09-1.85-29.63-1.85h-30.24v136.42h22.81v-58.01l43.41,56.04,1.53,1.98h28.5l-6.36-8.22-39.4-50.87ZM56.85,421.28v-32.76h17.17c9.91,0,14.54,1.02,16.67,1.87,2.76,1.1,4.95,2.9,6.67,5.5,1.74,2.63,2.59,5.49,2.59,8.73s-.85,6.34-2.58,9.04c-1.69,2.63-3.99,4.49-7.05,5.7-2.35.93-7.18,2.05-16.8,2.05l-16.67-.13Z"/>
        <path class="cls-2" d="M191.07,502.4h82.02v-22.55h-59.21v-39.41h59.21v-22.55h-59.21v-29.37h59.73v-22.55h-82.53v136.42Z"/>
        <path class="cls-2" d="M510.63,502.4h82.02v-22.55h-59.21v-39.41h59.21v-22.55h-59.21v-29.37h59.73v-22.55h-82.53v136.42Z"/>
        <polygon class="cls-2" points="678.54 365.98 655.73 365.98 655.73 502.4 727.11 502.4 727.11 480.02 678.54 480.02 678.54 365.98"/>
        <path class="cls-2" d="M828.27,421.89c-11.79-8.72-14.95-11.37-15.79-12.18-2.51-2.51-4.27-4.83-5.15-6.82-.86-1.93-1.28-3.87-1.28-5.91,0-3.14,1.04-5.6,3.27-7.73,2.27-2.17,5.2-3.22,8.96-3.22,3.04,0,5.76.75,8.33,2.28,1.9,1.14,5.3,3.99,10.69,11.14l3.08,4.08,4.07-3.09,10.3-7.81,3.99-3.03-2.96-4.04c-6.27-8.56-12.16-14.34-18.02-17.68-5.93-3.38-12.4-5.09-19.21-5.09-6.44,0-12.5,1.52-18.01,4.52-5.59,3.05-9.99,7.28-13.08,12.6-3.08,5.28-4.64,11.2-4.64,17.58,0,8.02,2.6,15.54,7.71,22.37,2.86,3.94,9.63,9.93,20.66,18.26,10,7.54,16.91,13.98,20.53,19.12,2.26,3.21,3.36,6.32,3.36,9.51,0,2.82-.73,5.43-2.22,7.98-1.47,2.51-3.59,4.48-6.49,6.02-3,1.59-6.12,2.37-9.54,2.37-7.84,0-15.14-6.12-21.69-18.19l-2.54-4.67-4.56,2.74-10.73,6.44-4.2,2.52,2.35,4.3c5.64,10.31,12.01,17.83,18.92,22.37,7.05,4.62,15.01,6.97,23.65,6.97,11.28,0,21.01-3.89,28.91-11.57,7.94-7.71,11.97-16.97,11.97-27.51,0-7.31-2.32-14.62-6.91-21.73-4.45-6.88-12.21-14.37-23.74-22.88Z"/>
        <path class="cls-2" d="M913.85,388.52h28.15v113.87h23.06v-113.87h28.15v-22.55h-79.36v22.55Z"/>
        <path class="cls-2" d="M1117.38,362.8c-12.65,0-24.57,3.19-35.44,9.48-10.88,6.3-19.59,15.12-25.88,26.23-6.28,11.08-9.46,23.28-9.46,36.24,0,19.51,7.01,36.38,20.82,50.12,13.81,13.74,30.97,20.71,50.99,20.71s36.84-7,50.62-20.8c13.78-13.8,20.77-30.84,20.77-50.63s-7.01-37.04-20.83-50.73c-13.81-13.68-31.16-20.61-51.59-20.61ZM1160.22,459.07c-4.19,7.39-10.11,13.31-17.6,17.58-7.52,4.29-15.83,6.46-24.68,6.46-13.39,0-24.52-4.59-34.01-14.02-9.48-9.42-14.09-20.67-14.09-34.39,0-9.19,2.15-17.62,6.38-25.05,4.23-7.41,10.19-13.4,17.73-17.78,7.54-4.39,15.62-6.61,24-6.61s16.79,2.23,24.45,6.62c7.65,4.39,13.65,10.3,17.85,17.58,4.2,7.28,6.32,15.57,6.32,24.64s-2.13,17.54-6.34,24.97Z"/>
        <path class="cls-2" d="M1493.3,388.52v-22.55h-82.53v136.42h82.02v-22.55h-59.21v-39.41h59.21v-22.55h-59.21v-29.37h59.73Z"/>
        <path class="cls-2" d="M425.94,366.32l-1.33,3.06-37.66,86.38-37.04-86.35-1.32-3.09h-24.77l3.05,7.1,53.93,125.72,1.29,3.27,4.57,11.55,4.86-11.44,1.42-3.34,54.71-125.75,3.1-7.13h-24.79Z"/>
        <polygon class="cls-2" points="1323.12 366.01 1276.18 415.68 1276.92 366.02 1254 366.02 1254 502.22 1276.92 502.22 1276.58 450.54 1281.88 445.24 1325.49 502.22 1356 502.22 1297.89 429.18 1356.09 366.01 1323.12 366.01"/>
      </g>
      <g>
        <polygon class="cls-2" points="206.79 608.33 217.55 553.36 235.09 593.09 253.26 553.36 262.93 608.33 255.01 608.33 250.09 577.47 234.96 610.68 220.26 577.44 214.76 608.33 206.79 608.33"/>
        <path class="cls-2" d="M301,582.53c0-7.19,2.63-13.36,7.91-18.52,5.26-5.16,11.57-7.74,18.94-7.74s13.53,2.6,18.74,7.79c5.23,5.22,7.85,11.49,7.85,18.78s-2.63,13.59-7.88,18.7c-5.28,5.14-11.65,7.71-19.12,7.71-6.59,0-12.52-2.28-17.78-6.84-5.78-5.07-8.67-11.68-8.67-19.88M308.79,582.62c0,5.65,1.9,10.29,5.69,13.93,3.78,3.64,8.14,5.46,13.08,5.46,5.36,0,9.88-1.85,13.57-5.56,3.68-3.75,5.53-8.31,5.53-13.7s-1.82-10-5.46-13.69c-3.62-3.71-8.1-5.57-13.44-5.57s-9.8,1.85-13.48,5.57c-3.66,3.67-5.49,8.18-5.49,13.56"/>
      </g>
      <!-- Mountain icon at top -->
      <path class="cls-2" d="M767.42,0L579.79,277.26h375.26L767.42,0Z"/>
    </g>
  </g>
</svg>
